<svg id="illustration" xmlns="http://www.w3.org/2000/svg" xmlns:xlink="http://www.w3.org/1999/xlink" viewBox="0 0 734.74 280.13"><defs><style>.cls-1{fill:#ff8860;}.cls-2{fill:#febe04;}.cls-3{fill:#fea500;}.cls-4{fill:#ff3d29;}.cls-5{fill:#01bbba;}.cls-6{fill:#c3377e;}.cls-7{fill:#9656ad;}.cls-8{clip-path:url(#clip-path);}.cls-9{fill:#fa5922;}.cls-10{fill:#fff;}</style><clipPath id="clip-path"><path id="SVGID" class="cls-1" d="M549.45,129.26s-4-14.74-3.63-21.28a39.75,39.75,0,0,1,3-12.4s-7.83-2.5-10.17,3.26-5.24,21.3-5.24,21.3Z"/></clipPath></defs><path class="cls-2" d="M627.08,210.74l-45.76-28.4a3.57,3.57,0,0,1-1.15-4.92l21.45-34.56L653.45,175,632,209.59A3.56,3.56,0,0,1,627.08,210.74Z"/><polygon class="cls-3" points="601.62 142.86 653.45 175.03 614.42 183.34 601.62 142.86"/><path class="cls-4" d="M104.76,52.28c-7-.13-12.22,7.22-13,14-6-3.37-15.37-3.18-19.32,2.55-4.18,6.07-2.46,12.79,3.61,17s30.51,9.4,30.46,9.21c.12.16,10.12-22.76,10.26-30.12S112.13,52.42,104.76,52.28Z"/><path class="cls-5" d="M569.13,81.22a4.24,4.24,0,1,1,0-6A4.24,4.24,0,0,1,569.13,81.22Z"/><path class="cls-6" d="M537.72,55.54a4.24,4.24,0,1,1,0-6A4.24,4.24,0,0,1,537.72,55.54Z"/><path class="cls-7" d="M566.92,65.26a7.34,7.34,0,1,1,0-10.39A7.35,7.35,0,0,1,566.92,65.26Z"/><path class="cls-5" d="M81.72,201l84.11,27.16a17.67,17.67,0,0,0,21.7-9.5c2-4.56,2.05-10-2.66-15.74-8.21-10-20.23-7.22-20.23-7.22s12.75-28.29-16.82-39.18c-27.83-10.23-35.93,18.2-35.93,18.2S95.38,151,74.66,169.94C65.05,178.71,69.34,197,81.72,201Z"/><path class="cls-7" d="M184.37,31h27a7.2,7.2,0,0,1,7.2,7.2V49.57a7.19,7.19,0,0,1-7.19,7.19h-27a7.19,7.19,0,0,1-7.19-7.19V38.18A7.19,7.19,0,0,1,184.37,31Z" transform="translate(-3.18 69.49) rotate(-19.76)"/><path class="cls-7" d="M203.23,54.37s3.91,1.14,4.64,4.06a21.26,21.26,0,0,1,.52,5.87s5.41-3.54,6-9.15-2.07-7.53-2.07-7.53Z"/><polygon class="cls-2" points="521.53 183.34 519.06 198 505.58 204.28 518.76 211.16 520.56 225.92 531.18 215.51 545.78 218.36 539.16 205.05 546.38 192.04 531.67 194.22 521.53 183.34"/><path class="cls-1" d="M507.05,147.61a6,6,0,0,0,4.09,7.46l23.58,5.8a6,6,0,0,0,7.09-4.71h0a6,6,0,0,0-4.09-7.46l-23.58-5.8a6,6,0,0,0-7.09,4.71Z"/><path class="cls-1" d="M509.54,137.5a6,6,0,0,0,4.09,7.47l23.58,5.8a6,6,0,0,0,7.09-4.72h0a6,6,0,0,0-4.09-7.46l-23.58-5.8a6,6,0,0,0-7.09,4.71Z"/><path class="cls-1" d="M512,127.39a6,6,0,0,0,4.1,7.47l23.58,5.8a6,6,0,0,0,7.09-4.72h0a6,6,0,0,0-4.1-7.46l-23.58-5.8a6,6,0,0,0-7.09,4.71Z"/><path class="cls-1" d="M514.51,117.28a6,6,0,0,0,4.09,7.47l23.58,5.8a6,6,0,0,0,7.09-4.72h0a6,6,0,0,0-4.09-7.46l-23.58-5.8a6,6,0,0,0-7.09,4.71Z"/><path id="SVGID-2" data-name="SVGID" class="cls-1" d="M549.45,129.26s-4-14.74-3.63-21.28a39.75,39.75,0,0,1,3-12.4s-7.83-2.5-10.17,3.26-5.24,21.3-5.24,21.3Z"/><g class="cls-8"><path class="cls-9" d="M542.48,100.07a4.06,4.06,0,1,0,4.91-3A4.06,4.06,0,0,0,542.48,100.07Z"/></g><rect class="cls-2" x="527.82" y="134.11" width="43.59" height="15.99" transform="translate(280.35 641.88) rotate(-76.18)"/><path class="cls-9" d="M175.08,129.74l-25.23,9.7a9.58,9.58,0,0,1-12.38-5.5L124.33,99.77l43.11-16.58,13.14,34.17A9.58,9.58,0,0,1,175.08,129.74Z"/><rect class="cls-1" x="121.71" y="89.68" width="51.11" height="10.74" transform="translate(-24.3 59.18) rotate(-21.03)"/><path class="cls-7" d="M137.39,97.63a3.08,3.08,0,0,1-1.77,4h0a3.08,3.08,0,0,1-4-1.77l-2.86-7.43a3.08,3.08,0,0,1,1.77-4h0a3.08,3.08,0,0,1,4,1.77Z"/><path class="cls-7" d="M162.58,88a3.08,3.08,0,0,1-1.77,4h0a3.09,3.09,0,0,1-4-1.77L154,82.73a3.08,3.08,0,0,1,1.77-4h0a3.07,3.07,0,0,1,4,1.76Z"/><path class="cls-10" d="M145.67,125.15a9.92,9.92,0,0,0,4.3-.47c2-.78,2.69-2.16,2.21-3.43-.64-1.65-2.58-1.76-4.31-1.1l-1.6.62L145.19,118l1.52-.58c1.31-.54,2.8-1.67,2.25-3.09-.39-1-1.5-1.44-3.15-.8a8.18,8.18,0,0,0-3.13,2.35l-1.89-2.53a11.24,11.24,0,0,1,4.7-3.26c3.59-1.38,6.3-.26,7.19,2,.68,1.78.21,3.56-1.58,5.08l0,0a4.47,4.47,0,0,1,5.21,2.68c1.14,3-.63,6.14-4.89,7.78a10.7,10.7,0,0,1-5.44.73Z"/><path class="cls-10" d="M160.68,108.53l-.05,0L158,111.3l-1.78-2.69,3.65-3.78,3.25-1.25,6.46,16.78-3.8,1.46Z"/><path class="cls-6" d="M224.94,121.82a5.26,5.26,0,1,1-5.26-5.26A5.26,5.26,0,0,1,224.94,121.82Z"/><path class="cls-5" d="M479.86,204.63a6.25,6.25,0,1,1-6.25-6.25A6.25,6.25,0,0,1,479.86,204.63Z"/></svg>